<svg width="852" height="477" viewBox="0 0 852 477" fill="none" xmlns="http://www.w3.org/2000/svg">
<path d="M329.693 145.27C222.431 -1.01154 65.2049 -9.2715 0 4.88366V477H852V319.628C806.473 229.201 675.396 233.698 664.39 240.192C653.383 246.687 463.772 328.121 329.693 145.27Z" fill="#38B964"/>
<path d="M365 352C345.8 272.8 388 232 411.5 221.5C441.1 247.1 496 260 521 262C521 276.5 518 314.4 496 360C474 405.6 505.167 456.333 523.5 476H333.5C352 467.667 384.2 431.2 365 352Z" fill="#5BD7D7"/>
<path d="M385.801 276.504C389.583 291.631 406.268 293.763 416.363 283.667C418.709 281.322 430.328 282.351 432.003 284.026" stroke="white" stroke-opacity="0.21" stroke-width="3" stroke-linecap="round"/>
<path d="M444.896 287.249C446.191 291.564 454.681 291.559 458.148 292.621C462.833 294.057 464.365 300.512 466.385 304.44C470.691 312.812 472.301 322.706 483.577 322.706" stroke="white" stroke-opacity="0.21" stroke-width="3" stroke-linecap="round"/>
<path d="M409.439 350.642C409.439 361.36 408.519 372.594 411.588 382.995C413.969 391.065 418.972 389.305 423.347 393.68C429.674 400.007 413.658 413.616 410.513 418.333" stroke="white" stroke-opacity="0.21" stroke-width="3" stroke-linecap="round"/>
<path d="M381.503 339.897C382.857 348.021 386.112 356.411 387.95 364.55C388.895 368.737 389.706 373.061 391.83 376.847C393.451 379.737 396.355 382.019 396.545 385.502C397.265 398.699 393.777 410.738 393.322 423.705C392.978 433.514 387.015 443.233 382.578 451.641C380.068 456.395 376.024 464.588 384.726 460.237" stroke="white" stroke-opacity="0.21" stroke-width="3" stroke-linecap="round"/>
<path d="M441.673 368.908C444.932 368.908 445.961 372.276 447.224 374.877C452.303 385.333 456.075 396.194 459.282 407.35C462.458 418.397 462.671 430.025 464.237 441.374C465.57 451.04 466.385 461.224 466.385 470.982" stroke="white" stroke-opacity="0.21" stroke-width="3" stroke-linecap="round"/>
<path d="M415.886 322.706C426.073 326.922 435.868 333.874 445.135 339.897C452.933 344.966 462.782 349.307 469.43 355.955C476.17 362.695 470.043 373.545 475.817 380.727C484.343 391.332 480.726 409.58 481.487 422.153C482.034 431.176 482.924 441.864 485.785 450.447C487.081 454.334 488.949 457.272 488.949 461.311" stroke="white" stroke-opacity="0.21" stroke-width="3" stroke-linecap="round"/>
</svg>
