<svg width="851" height="477" viewBox="0 0 851 477" fill="none" xmlns="http://www.w3.org/2000/svg">
<path d="M329.5 145.388C222.3 -1.01236 65.1667 -9.27904 0 4.88763V477.388H851.5V319.888C806 229.388 675 233.888 664 240.388C653 246.888 463.5 328.388 329.5 145.388Z" fill="#40A061"/>
<path d="M364 352C344.8 272.8 387 232 410.5 221.5C440.1 247.1 495 260 520 262C520 276.5 517 314.4 495 360C473 405.6 504.167 456.333 522.5 476H332.5C351 467.667 383.2 431.2 364 352Z" fill="#53BCBC"/>
<path d="M384.801 276.504C388.583 291.631 405.268 293.763 415.363 283.667C417.709 281.322 429.328 282.351 431.003 284.026" stroke="white" stroke-opacity="0.21" stroke-width="3" stroke-linecap="round"/>
<path d="M443.896 287.249C445.191 291.564 453.681 291.559 457.148 292.621C461.833 294.057 463.365 300.512 465.385 304.44C469.691 312.812 471.301 322.706 482.577 322.706" stroke="white" stroke-opacity="0.21" stroke-width="3" stroke-linecap="round"/>
<path d="M408.439 350.642C408.439 361.36 407.519 372.594 410.588 382.995C412.969 391.065 417.972 389.305 422.347 393.68C428.674 400.007 412.658 413.616 409.513 418.333" stroke="white" stroke-opacity="0.21" stroke-width="3" stroke-linecap="round"/>
<path d="M380.503 339.897C381.857 348.021 385.112 356.411 386.95 364.55C387.895 368.737 388.706 373.061 390.83 376.847C392.451 379.737 395.355 382.019 395.545 385.502C396.265 398.699 392.777 410.738 392.322 423.705C391.978 433.514 386.015 443.233 381.578 451.641C379.068 456.395 375.024 464.588 383.726 460.237" stroke="white" stroke-opacity="0.21" stroke-width="3" stroke-linecap="round"/>
<path d="M440.673 368.908C443.932 368.908 444.961 372.276 446.224 374.877C451.303 385.334 455.075 396.194 458.282 407.35C461.458 418.397 461.671 430.025 463.237 441.375C464.57 451.04 465.385 461.225 465.385 470.982" stroke="white" stroke-opacity="0.21" stroke-width="3" stroke-linecap="round"/>
<path d="M414.886 322.706C425.073 326.922 434.868 333.874 444.135 339.897C451.933 344.966 461.782 349.307 468.43 355.955C475.17 362.695 469.043 373.545 474.817 380.727C483.343 391.332 479.726 409.58 480.487 422.153C481.034 431.176 481.924 441.864 484.785 450.447C486.081 454.334 487.949 457.272 487.949 461.311" stroke="white" stroke-opacity="0.21" stroke-width="3" stroke-linecap="round"/>
</svg>
