<svg width="279" height="169" viewBox="0 0 279 169" fill="none" xmlns="http://www.w3.org/2000/svg">
<path d="M249.188 65.1801C251.43 43.0273 235.882 21.3695 214.683 13.9672C198.038 8.15488 168.052 9.94751 152.631 23.6677C138.628 5.41485 114.23 -4.6788 91.2697 2.13981C68.2545 8.97435 52.8921 30.7838 51.1538 53.8824C39.2079 51.3754 26.4073 54.209 16.4694 61.9407C1.79485 73.3569 -3.21764 93.9002 2.0131 111.427C7.279 129.071 22.2564 142.053 39.5737 147.334C56.3891 152.462 74.2046 149.557 89.7231 142.005C99.8724 161.748 124.256 171.701 146.244 168.056C160.016 165.773 172.412 158.984 183.211 150.341C185.968 148.134 190.502 145.221 192.335 142.147C193.299 142.832 194.278 143.497 195.286 144.121C201.085 147.693 207.664 150.483 214.31 151.967C240.677 157.856 271.207 144.072 277.797 116.234C283.126 93.7281 270.244 70.2989 249.188 65.1801Z" fill="white"/>
<path d="M39.5737 147.334C22.2564 142.053 7.27902 129.07 2.01312 111.427C2.01312 111.427 41.9182 121.257 70.9591 112.628C100 104 139.905 113.83 139.905 113.83C139.905 113.83 189 112.5 208.5 120C228 127.5 277.797 116.234 277.797 116.234C271.207 144.072 240.677 157.856 214.31 151.967C207.664 150.483 201.085 147.692 195.286 144.121C194.278 143.497 193.299 142.832 192.335 142.147C190.502 145.22 185.968 148.133 183.211 150.34C172.412 158.984 160.016 165.773 146.244 168.056C124.256 171.701 99.8724 161.748 89.7231 142.005C74.2046 149.557 56.3891 152.462 39.5737 147.334Z" fill="url(#paint0_linear_425_970)"/>
<defs>
<linearGradient id="paint0_linear_425_970" x1="140" y1="109" x2="139.775" y2="168.798" gradientUnits="userSpaceOnUse">
<stop stop-color="white"/>
<stop offset="1" stop-color="#D0CFCF"/>
</linearGradient>
</defs>
</svg>
