<svg width="1024" height="1024" viewBox="0 0 1024 1024" fill="none" xmlns="http://www.w3.org/2000/svg">
<g clip-path="url(#clip0_464_111)">
<rect width="1024" height="1024" fill="url(#paint0_linear_464_111)"/>
<path d="M12.834 1015H1024V413.796C958.946 352.4 872.467 552.837 784.373 543.519C679.647 515.204 582.292 318.084 478.479 339.387C255.552 385.13 53.1429 467.071 12.834 486.231V1015Z" fill="#2D754A"/>
<path d="M-70 1015H1021.04V449.128C950.849 391.34 857.539 579.997 762.486 571.228C649.487 544.576 544.442 359.041 432.428 379.091C191.891 422.147 -26.5069 499.272 -70 517.305V1015Z" fill="#296A43"/>
<path d="M12.834 1022H1024V413.889C958.946 351.788 872.467 554.527 784.373 545.103C679.647 516.462 582.292 317.078 478.479 338.625C255.552 384.894 53.1429 467.776 12.834 487.156V1022Z" fill="#2D754A"/>
<path d="M-70 1022H1021.04V449.627C950.849 391.175 857.539 582 762.486 573.129C649.487 546.172 544.442 358.505 432.428 378.786C191.891 422.336 -26.5069 500.347 -70 518.588V1022Z" fill="#296A43"/>
<path d="M702.131 584.107C651.484 534.02 661.503 481.756 670.181 463.551C700.159 492.857 761.298 548.806 792.065 546.808C814.548 543.478 833.285 533.709 835.257 531.489C827.762 548.806 815.14 593.299 824.607 630.065C834.073 666.832 828.551 703.11 824.607 722.647L702.131 739.299C723.234 709.992 752.778 634.195 702.131 584.107Z" fill="#54A7A7"/>
<path d="M679.159 496.89C679.47 503.197 683.652 507.934 684.245 514.384C684.705 519.392 686.783 524.463 687.423 529.651C688.137 535.438 688.841 541.488 690.672 546.986C693.811 556.408 700.715 565.379 706.424 573.067C713.851 583.067 719.545 592.875 725.425 604.079C730.556 613.853 738.209 622.812 738.846 634.295C740.014 655.322 735.103 675.603 735.103 696.478C735.103 700.065 733.733 707.866 735.809 710.87C738.705 715.062 749.037 713.494 753.186 712.699C763.447 710.733 770.664 706.556 779.674 700.851C784.121 698.035 789.775 697.767 789.775 691.548C789.775 684.45 790.4 678.366 791.612 671.35C793.033 663.125 792.241 654.393 792.318 646.064C792.391 638.209 794.211 630.61 795.144 622.845C797.123 606.357 800.698 592.608 806.304 577.282C809.072 569.715 812.128 567.264 819.019 564.161" stroke="white" stroke-opacity="0.17" stroke-width="3" stroke-linecap="round"/>
<path d="M705.859 526.947C713.855 538.449 723.584 549.659 730.017 562.332C734.528 571.219 738.453 580.051 743.861 588.334C746.058 591.699 747.549 594.763 748.453 598.831C753.159 620.025 747.95 644.614 756.717 664.353" stroke="white" stroke-opacity="0.17" stroke-width="3" stroke-linecap="round"/>
<path d="M775.789 555.574C779.283 562.131 778.331 572.008 778.331 579.349C778.331 591.478 777.672 603.603 776.777 615.689C775.975 626.533 775.469 636.431 777.06 647.177" stroke="white" stroke-opacity="0.17" stroke-width="3" stroke-linecap="round"/>
<path d="M757.988 581.337C760.03 599.952 761.991 618.602 764.346 637.158" stroke="white" stroke-opacity="0.17" stroke-width="3" stroke-linecap="round"/>
<path d="M813.933 650.04C813.933 661.896 814.117 673.645 812.096 685.346C811.184 690.625 810.517 696.74 812.661 701.567" stroke="white" stroke-opacity="0.17" stroke-width="3" stroke-linecap="round"/>
<path d="M396.864 572.043C268.073 373.628 79.2918 362.424 1 381.624V1022H1024V808.541C969.336 685.887 811.951 691.986 798.736 700.796C785.52 709.605 557.853 820.061 396.864 572.043Z" fill="#40A061"/>
<path d="M396.864 572.652C268.073 373.624 79.2918 362.385 1 381.645V1024H1024V809.882C969.336 686.848 811.951 692.966 798.736 701.803C785.52 710.639 557.853 821.437 396.864 572.652Z" fill="#40A061"/>
<path d="M438.313 853.538C415.246 745.867 465.945 690.4 494.179 676.125C529.74 710.928 595.698 728.466 625.733 731.185C625.733 750.897 622.129 802.421 595.698 864.414C569.267 926.406 606.711 995.377 628.736 1022.11H400.469C422.695 1010.78 461.38 961.209 438.313 853.538Z" fill="#53BCBC"/>
<path d="M463.303 750.903C467.847 771.468 487.893 774.365 500.021 760.641C502.839 757.452 516.798 758.851 518.81 761.128" stroke="white" stroke-opacity="0.21" stroke-width="3" stroke-linecap="round"/>
<path d="M534.301 765.51C535.856 771.376 546.056 771.369 550.222 772.813C555.851 774.765 557.691 783.54 560.119 788.881C565.291 800.262 567.225 813.713 580.772 813.713" stroke="white" stroke-opacity="0.21" stroke-width="3" stroke-linecap="round"/>
<path d="M491.702 851.691C491.702 866.263 490.597 881.534 494.284 895.675C497.145 906.646 503.156 904.253 508.412 910.201C516.013 918.803 496.772 937.303 492.993 943.716" stroke="white" stroke-opacity="0.21" stroke-width="3" stroke-linecap="round"/>
<path d="M458.14 837.084C459.766 848.129 463.677 859.534 465.885 870.6C467.021 876.292 467.995 882.17 470.546 887.317C472.494 891.245 475.984 894.348 476.212 899.083C477.077 917.024 472.886 933.391 472.339 951.02C471.926 964.354 464.762 977.567 459.431 988.998C456.416 995.461 451.557 1006.6 462.012 1000.68" stroke="white" stroke-opacity="0.21" stroke-width="3" stroke-linecap="round"/>
<path d="M530.428 876.524C534.344 876.524 535.58 881.103 537.098 884.639C543.199 898.854 547.731 913.619 551.584 928.785C555.4 943.803 555.656 959.611 557.536 975.041C559.138 988.181 560.118 1002.03 560.118 1015.29" stroke="white" stroke-opacity="0.21" stroke-width="3" stroke-linecap="round"/>
<path d="M499.448 813.713C511.687 819.444 523.455 828.895 534.588 837.084C543.957 843.975 555.79 849.877 563.776 858.914C571.874 868.077 564.513 882.827 571.449 892.591C581.693 907.009 577.347 931.817 578.262 948.91C578.919 961.175 579.988 975.706 583.426 987.375C584.982 992.658 587.227 996.652 587.227 1002.14" stroke="white" stroke-opacity="0.21" stroke-width="3" stroke-linecap="round"/>
<rect x="162" y="36" width="700" height="169" rx="27" fill="#D9D9D9"/>
<rect x="189" y="56.4971" width="118.516" height="123.762" rx="16" fill="#9D9D9D"/>
<rect x="365.112" y="56.4971" width="118.516" height="123.762" rx="16" fill="#9D9D9D"/>
<rect x="541.225" y="58.9004" width="118.516" height="123.762" rx="16" fill="#9D9D9D"/>
<rect x="717.337" y="56.4971" width="118.516" height="123.762" rx="16" fill="#9D9D9D"/>
</g>
<defs>
<linearGradient id="paint0_linear_464_111" x1="512" y1="0" x2="512" y2="1024" gradientUnits="userSpaceOnUse">
<stop stop-color="#2F618E"/>
<stop offset="1" stop-color="#283A40"/>
</linearGradient>
<clipPath id="clip0_464_111">
<rect width="1024" height="1024" rx="92" fill="white"/>
</clipPath>
</defs>
</svg>
