<svg width="1024" height="1024" viewBox="0 0 1024 1024" fill="none" xmlns="http://www.w3.org/2000/svg">
<g clip-path="url(#clip0_464_78)">
<rect width="1024" height="1024" fill="url(#paint0_linear_464_78)"/>
<path d="M77.5337 1023.74H1024V475.22C963.108 419.205 882.163 602.075 799.706 593.575C701.681 567.741 610.555 387.896 513.384 407.331C304.721 449.067 115.263 523.826 77.5337 541.306V1023.74Z" fill="#298B4A"/>
<path d="M0 1023.74H1021.23V507.455C955.529 454.732 868.19 626.856 779.219 618.855C673.451 594.539 575.127 425.263 470.28 443.556C245.134 482.839 40.7102 553.205 0 569.658V1023.74Z" fill="#238545"/>
<path d="M77.5337 1024H1024V475.484C963.108 419.468 882.163 602.339 799.706 593.839C701.681 568.005 610.555 388.16 513.384 407.595C304.721 449.33 115.263 524.09 77.5337 541.57V1024Z" fill="#298B4A"/>
<path d="M0 1024H1021.23V507.719C955.529 454.996 868.19 627.12 779.219 619.119C673.451 594.803 575.127 425.527 470.28 443.821C245.134 483.103 40.7102 553.469 0 569.922V1024Z" fill="#238545"/>
<path d="M722.725 627.819C675.319 582.64 684.697 535.499 692.82 519.077C720.879 545.512 778.107 595.978 806.905 594.175C827.95 591.171 845.487 582.36 847.333 580.357C840.318 595.978 828.504 636.11 837.365 669.273C846.226 702.437 841.057 735.159 837.365 752.782L722.725 767.802C742.478 741.367 770.132 672.998 722.725 627.819Z" fill="#53C8C8"/>
<path d="M701.224 549.149C701.515 554.838 705.429 559.111 705.984 564.928C706.415 569.446 708.36 574.02 708.959 578.699C709.628 583.919 710.286 589.376 712.001 594.335C714.939 602.834 721.4 610.926 726.745 617.861C733.696 626.881 739.025 635.728 744.53 645.833C749.333 654.65 756.495 662.73 757.092 673.088C758.185 692.054 753.588 710.348 753.588 729.177C753.588 732.413 752.306 739.449 754.249 742.159C756.96 745.94 766.631 744.526 770.514 743.809C780.119 742.035 786.874 738.268 795.308 733.122C799.47 730.582 804.762 730.34 804.762 724.73C804.762 718.328 805.347 712.84 806.481 706.512C807.811 699.093 807.07 691.217 807.143 683.704C807.211 676.618 808.915 669.764 809.787 662.76C811.64 647.888 814.986 635.487 820.234 621.662C822.824 614.837 825.685 612.626 832.135 609.828" stroke="white" stroke-opacity="0.17" stroke-width="3" stroke-linecap="round"/>
<path d="M726.215 576.261C733.7 586.635 742.806 596.747 748.827 608.178C753.05 616.194 756.724 624.16 761.786 631.632C763.842 634.667 765.238 637.43 766.084 641.099C770.489 660.217 765.613 682.396 773.819 700.2" stroke="white" stroke-opacity="0.17" stroke-width="3" stroke-linecap="round"/>
<path d="M791.67 602.082C794.942 607.996 794.051 616.905 794.051 623.527C794.051 634.467 793.433 645.404 792.596 656.305C791.845 666.086 791.371 675.015 792.861 684.708" stroke="white" stroke-opacity="0.17" stroke-width="3" stroke-linecap="round"/>
<path d="M775.009 625.32C776.92 642.111 778.756 658.933 780.96 675.671" stroke="white" stroke-opacity="0.17" stroke-width="3" stroke-linecap="round"/>
<path d="M827.374 687.29C827.374 697.984 827.547 708.582 825.655 719.136C824.802 723.897 824.177 729.413 826.184 733.767" stroke="white" stroke-opacity="0.17" stroke-width="3" stroke-linecap="round"/>
<path d="M395.477 624.811C266.812 448.783 78.2153 438.843 0 455.877V1024H1022V834.626C967.389 725.811 810.159 731.221 796.956 739.037C783.753 746.852 556.309 844.846 395.477 624.811Z" fill="#38B964"/>
<path d="M395.18 625.139C266.611 449.372 78.1564 439.448 0 456.456V1023.74H1021.23V834.643C966.661 725.989 809.549 731.392 796.356 739.195C783.164 746.999 555.89 844.848 395.18 625.139Z" fill="#38B964"/>
<path d="M437.499 873.54C414.485 778.376 465.067 729.352 493.235 716.735C528.714 747.495 594.519 762.996 624.485 765.399C624.485 782.822 620.889 828.361 594.519 883.153C568.149 937.944 605.507 998.904 627.481 1022.53H399.742C421.917 1012.52 460.513 968.704 437.499 873.54Z" fill="#5BD7D7"/>
<path d="M462.431 782.827C466.964 801.003 486.963 803.564 499.064 791.434C501.875 788.615 515.802 789.851 517.809 791.864" stroke="white" stroke-opacity="0.21" stroke-width="3" stroke-linecap="round"/>
<path d="M533.265 795.737C534.816 800.922 544.992 800.915 549.148 802.192C554.765 803.918 556.601 811.673 559.022 816.394C564.183 826.452 566.112 838.341 579.628 838.341" stroke="white" stroke-opacity="0.21" stroke-width="3" stroke-linecap="round"/>
<path d="M490.765 871.908C490.765 884.787 489.662 898.284 493.341 910.783C496.195 920.479 502.192 918.365 507.436 923.621C515.02 931.224 495.823 947.575 492.053 953.244" stroke="white" stroke-opacity="0.21" stroke-width="3" stroke-linecap="round"/>
<path d="M457.28 858.998C458.903 868.759 462.804 878.84 465.007 888.62C466.14 893.651 467.112 898.846 469.658 903.395C471.601 906.868 475.082 909.609 475.31 913.795C476.173 929.652 471.992 944.118 471.447 959.699C471.034 971.484 463.887 983.162 458.568 993.266C455.56 998.978 450.712 1008.82 461.144 1003.59" stroke="white" stroke-opacity="0.21" stroke-width="3" stroke-linecap="round"/>
<path d="M529.401 893.856C533.307 893.856 534.54 897.903 536.055 901.028C542.142 913.592 546.664 926.642 550.508 940.046C554.315 953.32 554.57 967.291 556.446 980.929C558.044 992.543 559.022 1004.78 559.022 1016.5" stroke="white" stroke-opacity="0.21" stroke-width="3" stroke-linecap="round"/>
<path d="M498.492 838.341C510.703 843.406 522.443 851.76 533.551 858.998C542.898 865.088 554.703 870.304 562.671 878.291C570.75 886.39 563.406 899.427 570.327 908.057C580.546 920.8 576.21 942.727 577.124 957.834C577.779 968.675 578.846 981.518 582.275 991.831C583.828 996.501 586.067 1000.03 586.067 1004.88" stroke="white" stroke-opacity="0.21" stroke-width="3" stroke-linecap="round"/>
<rect x="162" y="54" width="700" height="169" rx="27" fill="#D9D9D9"/>
<rect x="189" y="74.4973" width="118.516" height="123.762" rx="16" fill="#9D9D9D"/>
<rect x="365.112" y="74.4973" width="118.516" height="123.762" rx="16" fill="#9D9D9D"/>
<rect x="541.225" y="76.9004" width="118.516" height="123.762" rx="16" fill="#9D9D9D"/>
<rect x="717.337" y="74.4973" width="118.516" height="123.762" rx="16" fill="#9D9D9D"/>
<rect x="162" y="54" width="700" height="169" rx="27" fill="#D9D9D9"/>
<rect x="189" y="74.4973" width="118.516" height="123.762" rx="16" fill="#9D9D9D"/>
<rect x="365.112" y="74.4973" width="118.516" height="123.762" rx="16" fill="#9D9D9D"/>
<rect x="541.225" y="76.9004" width="118.516" height="123.762" rx="16" fill="#9D9D9D"/>
<rect x="717.337" y="74.4973" width="118.516" height="123.762" rx="16" fill="#9D9D9D"/>
</g>
<defs>
<linearGradient id="paint0_linear_464_78" x1="512" y1="0" x2="512" y2="1024" gradientUnits="userSpaceOnUse">
<stop stop-color="#59ABF8"/>
<stop offset="1" stop-color="#3689A4"/>
</linearGradient>
<clipPath id="clip0_464_78">
<rect width="1024" height="1024" rx="92" fill="white"/>
</clipPath>
</defs>
</svg>
