<svg width="852" height="514" viewBox="0 0 852 514" fill="none" xmlns="http://www.w3.org/2000/svg">
<path d="M0 514.219H854.5V57.7195C799.525 11.101 726.445 163.295 652 156.22C563.5 134.72 481.229 -14.9553 393.5 1.21964C205.112 35.9535 34.0636 98.1717 0 112.72V514.219Z" fill="#298B4A"/>
<path d="M-70 514.22H852V84.5472C792.683 40.6683 713.83 183.918 633.504 177.259C538.013 157.022 449.243 16.1433 354.584 31.3677C151.315 64.0603 -33.2456 122.622 -70 136.315V514.22Z" fill="#238545"/>
<path d="M582.5 184.5C539.7 146.9 548.167 107.667 555.5 94C580.833 116 632.5 158 658.5 156.5C677.5 154 693.333 146.667 695 145C688.667 158 678 191.4 686 219C694 246.6 689.333 273.833 686 288.5L582.5 301C600.333 279 625.3 222.1 582.5 184.5Z" fill="#53C8C8"/>
<path d="M563.087 119.027C563.35 123.762 566.884 127.318 567.385 132.159C567.774 135.919 569.53 139.726 570.071 143.62C570.674 147.965 571.269 152.506 572.817 156.633C575.469 163.706 581.303 170.441 586.128 176.212C592.404 183.719 597.216 191.082 602.185 199.492C606.521 206.83 612.988 213.555 613.527 222.175C614.513 237.96 610.363 253.184 610.363 268.855C610.363 271.548 609.206 277.403 610.96 279.659C613.408 282.806 622.139 281.628 625.644 281.032C634.316 279.556 640.415 276.421 648.029 272.138C651.787 270.024 656.565 269.823 656.565 265.154C656.565 259.826 657.093 255.259 658.117 249.992C659.318 243.817 658.649 237.263 658.714 231.01C658.775 225.113 660.314 219.408 661.102 213.58C662.774 201.202 665.795 190.881 670.533 179.376C672.872 173.696 675.455 171.856 681.278 169.527" stroke="white" stroke-opacity="0.17" stroke-width="3" stroke-linecap="round"/>
<path d="M585.65 141.591C592.408 150.225 600.629 158.64 606.065 168.154C609.877 174.825 613.195 181.455 617.765 187.673C619.621 190.199 620.881 192.499 621.645 195.553C625.622 211.463 621.22 229.921 628.629 244.739" stroke="white" stroke-opacity="0.17" stroke-width="3" stroke-linecap="round"/>
<path d="M644.746 163.08C647.699 168.002 646.895 175.417 646.895 180.928C646.895 190.033 646.337 199.135 645.581 208.207C644.903 216.348 644.476 223.778 645.82 231.846" stroke="white" stroke-opacity="0.17" stroke-width="3" stroke-linecap="round"/>
<path d="M629.703 182.42C631.429 196.394 633.086 210.395 635.076 224.324" stroke="white" stroke-opacity="0.17" stroke-width="3" stroke-linecap="round"/>
<path d="M676.98 233.994C676.98 242.894 677.136 251.714 675.428 260.498C674.657 264.461 674.093 269.051 675.905 272.675" stroke="white" stroke-opacity="0.17" stroke-width="3" stroke-linecap="round"/>
</svg>
