<svg width="852" height="515" viewBox="0 0 852 515" fill="none" xmlns="http://www.w3.org/2000/svg">
<path d="M0 514.219H854.5V57.7195C799.525 11.101 726.445 163.295 652 156.22C563.5 134.72 481.229 -14.9553 393.5 1.21964C205.112 35.9535 34.0636 98.1717 0 112.72V514.219Z" fill="#2D754A"/>
<path d="M-70 514.22H852V84.5472C792.683 40.6683 713.83 183.918 633.504 177.259C538.013 157.022 449.243 16.1433 354.584 31.3677C151.315 64.0603 -33.2456 122.622 -70 136.315V514.22Z" fill="#296A43"/>
<path d="M582.5 185.5C539.7 147.9 548.167 108.667 555.5 95C580.833 117 632.5 159 658.5 157.5C677.5 155 693.333 147.667 695 146C688.667 159 678 192.4 686 220C694 247.6 689.333 274.833 686 289.5L582.5 302C600.333 280 625.3 223.1 582.5 185.5Z" fill="#54A7A7"/>
<path d="M563.087 120.027C563.35 124.762 566.884 128.318 567.385 133.16C567.774 136.92 569.53 140.726 570.071 144.621C570.674 148.965 571.269 153.506 572.817 157.633C575.469 164.707 581.303 171.441 586.128 177.212C592.404 184.719 597.216 192.082 602.185 200.492C606.521 207.83 612.988 214.555 613.527 223.176C614.513 238.96 610.363 254.184 610.363 269.855C610.363 272.548 609.206 278.404 610.96 280.659C613.408 283.806 622.139 282.629 625.644 282.032C634.316 280.556 640.415 277.421 648.029 273.138C651.787 271.024 656.565 270.823 656.565 266.154C656.565 260.826 657.093 256.259 658.117 250.992C659.318 244.817 658.649 238.263 658.714 232.01C658.775 226.113 660.314 220.409 661.102 214.58C662.774 202.202 665.795 191.882 670.533 180.376C672.872 174.696 675.455 172.856 681.278 170.527" stroke="white" stroke-opacity="0.17" stroke-width="3" stroke-linecap="round"/>
<path d="M585.65 142.591C592.408 151.225 600.629 159.64 606.065 169.154C609.877 175.825 613.195 182.455 617.765 188.673C619.621 191.199 620.881 193.499 621.645 196.553C625.622 212.463 621.22 230.921 628.629 245.739" stroke="white" stroke-opacity="0.17" stroke-width="3" stroke-linecap="round"/>
<path d="M644.746 164.08C647.699 169.002 646.895 176.417 646.895 181.928C646.895 191.033 646.337 200.135 645.581 209.207C644.903 217.348 644.476 224.778 645.82 232.846" stroke="white" stroke-opacity="0.17" stroke-width="3" stroke-linecap="round"/>
<path d="M629.703 183.42C631.429 197.394 633.086 211.395 635.076 225.324" stroke="white" stroke-opacity="0.17" stroke-width="3" stroke-linecap="round"/>
<path d="M676.98 234.995C676.98 243.894 677.136 252.714 675.428 261.498C674.657 265.461 674.093 270.052 675.905 273.675" stroke="white" stroke-opacity="0.17" stroke-width="3" stroke-linecap="round"/>
</svg>
