<svg width="279" height="169" viewBox="0 0 279 169" fill="none" xmlns="http://www.w3.org/2000/svg">
<path d="M249.188 65.1801C251.43 43.0273 235.882 21.3695 214.683 13.9672C198.038 8.15488 168.052 9.94751 152.631 23.6677C138.628 5.41485 114.23 -4.6788 91.2697 2.13981C68.2545 8.97435 52.8921 30.7838 51.1538 53.8824C39.2079 51.3754 26.4073 54.209 16.4694 61.9407C1.79485 73.3569 -3.21764 93.9002 2.0131 111.427C7.279 129.071 22.2564 142.053 39.5737 147.334C56.3891 152.462 74.2046 149.557 89.7231 142.005C99.8724 161.748 124.256 171.701 146.244 168.056C160.016 165.773 172.412 158.984 183.211 150.341C185.968 148.134 190.502 145.221 192.335 142.147C193.299 142.832 194.278 143.497 195.286 144.121C201.085 147.693 207.664 150.483 214.31 151.967C240.677 157.856 271.207 144.072 277.797 116.234C283.126 93.7281 270.244 70.2989 249.188 65.1801Z" fill="white"/>
</svg>
